<svg height="512" viewBox="0 0 256 256" width="512" xmlns="http://www.w3.org/2000/svg"><rect fill="#cecece" height="151.106" rx="13.665" width="219.26" x="18.37" y="50.711"/><path d="m28.37 188.153v-123.777a13.681 13.681 0 0 1 13.665-13.665h-10a13.681 13.681 0 0 0 -13.665 13.665v123.777a13.681 13.681 0 0 0 13.665 13.665h10a13.681 13.681 0 0 1 -13.665-13.665z" fill="#afafaf"/><path d="m227.63 188.153v-123.777a13.681 13.681 0 0 0 -13.665-13.665h10a13.681 13.681 0 0 1 13.665 13.665v123.777a13.681 13.681 0 0 1 -13.665 13.665h-10a13.681 13.681 0 0 0 13.665-13.665z" fill="#e2e2e2"/><rect fill="#63bce7" height="122.288" rx="5.256" width="202.442" x="26.779" y="59.12"/><path d="m36.779 176.153v-111.777a5.271 5.271 0 0 1 5.256-5.256h-10a5.271 5.271 0 0 0 -5.256 5.256v111.777a5.271 5.271 0 0 0 5.256 5.256h10a5.271 5.271 0 0 1 -5.256-5.256z" fill="#6377e7"/><path d="m219.221 176.153v-111.777a5.271 5.271 0 0 0 -5.256-5.256h10a5.271 5.271 0 0 1 5.256 5.256v111.777a5.271 5.271 0 0 1 -5.256 5.256h-10a5.271 5.271 0 0 0 5.256-5.256z" fill="#63e2e7"/><path d="m89.809 223.975h76.383v9.197h-76.383z" fill="#9e9e9e"/><path d="m89.809 223.975h10v9.197h-10z" fill="#707070"/><path d="m100.67 201.817h54.659v22.158h-54.659z" fill="#cecece"/><path d="m100.67 201.817h10v22.158h-10z" fill="#afafaf"/><circle cx="128" cy="191.613" fill="#9e9e9e" r="4.5"/><rect fill="#cecece" height="132.343" rx="10.6" width="154.485" x="50.757" y="11.854"/><path d="m60.757 133.6v-111.146a10.6 10.6 0 0 1 10.6-10.6h-10a10.6 10.6 0 0 0 -10.6 10.6v111.146a10.6 10.6 0 0 0 10.6 10.6h10a10.6 10.6 0 0 1 -10.6-10.6z" fill="#afafaf"/><path d="m195.243 133.6v-111.146a10.6 10.6 0 0 0 -10.6-10.6h10a10.6 10.6 0 0 1 10.6 10.6v111.146a10.6 10.6 0 0 1 -10.6 10.6h-10a10.6 10.6 0 0 0 10.6-10.6z" fill="#e2e2e2"/><path d="m205.242 22.456a10.6 10.6 0 0 0 -10.6-10.6h-133.283a10.6 10.6 0 0 0 -10.6 10.6v18.449h154.483z" fill="#f8af23"/><path d="m71.359 11.854h-10a10.6 10.6 0 0 0 -10.6 10.6v18.451h10v-18.449a10.6 10.6 0 0 1 10.6-10.602z" fill="#f87023"/><path d="m184.641 11.854h10a10.6 10.6 0 0 1 10.6 10.6v18.451h-10v-18.449a10.6 10.6 0 0 0 -10.6-10.602z" fill="#f8d323"/><circle cx="69.682" cy="26.38" fill="#f46275" r="4.842"/><circle cx="88.332" cy="26.38" fill="#f46275" r="4.842"/><circle cx="106.981" cy="26.38" fill="#f46275" r="4.842"/><rect fill="#f46275" height="7.378" rx="3.689" width="68.643" x="122.517" y="23.008"/><path d="m108.156 151.422c.208.58.443 1.138.7 1.691l-5.2 5.2 10.223 10.223 5.2-5.2c.553.257 1.116.493 1.691.7v7.355h14.453v-7.355c.575-.208 1.138-.443 1.691-.7l5.2 5.2 10.223-10.223-5.2-5.2c.257-.553.493-1.111.7-1.691h7.355v-14.453h-7.355c-.208-.575-.443-1.138-.7-1.691l5.2-5.2-10.223-10.223-5.2 5.2c-.553-.257-1.116-.5-1.691-.706v-7.349h-14.452v7.35c-.575.208-1.138.449-1.691.706l-5.2-5.2-10.223 10.223 5.2 5.2c-.257.553-.493 1.116-.7 1.691h-7.35v14.453z" fill="#f46275"/><circle cx="128" cy="144.196" fill="#9e9e9e" r="9.204"/><rect fill="#f8af23" height="46.88" rx="5" width="118.333" x="68.833" y="59.12"/><g fill="#3f3679"><path d="m128 197.613a6 6 0 1 0 -6-6 6.007 6.007 0 0 0 6 6zm0-9a3 3 0 1 1 -3 3 3 3 0 0 1 3-3z"/><path d="m27.323 242.646h-18a1.5 1.5 0 1 0 0 3h18a1.5 1.5 0 1 0 0-3z"/><path d="m246.68 242.646h-18a1.5 1.5 0 0 0 0 3h18a1.5 1.5 0 0 0 0-3z"/><path d="m218.479 242.646h-180.958a1.5 1.5 0 0 0 0 3h180.958a1.5 1.5 0 0 0 0-3z"/><path d="m9.32 234.673h237.36a1.5 1.5 0 0 0 0-3h-78.989v-7.7a1.5 1.5 0 0 0 -1.5-1.5h-9.362v-19.156h67.137a15.182 15.182 0 0 0 15.164-15.165v-123.776a15.182 15.182 0 0 0 -15.164-15.165h-17.224v-26.757a12.113 12.113 0 0 0 -12.1-12.1h-133.285a12.114 12.114 0 0 0 -12.1 12.1v26.757h-17.222a15.182 15.182 0 0 0 -15.165 15.165v123.776a15.182 15.182 0 0 0 15.165 15.165h67.135v19.158h-9.361a1.5 1.5 0 0 0 -1.5 1.5v7.7h-78.989a1.5 1.5 0 1 0 0 3zm145.875-99.2h-6.125l4.33-4.33a1.5 1.5 0 0 0 0-2.121l-10.221-10.222a1.544 1.544 0 0 0 -2.121 0l-4.33 4.33v-6.13a1.5 1.5 0 0 0 -1.5-1.5h-14.456a1.5 1.5 0 0 0 -1.5 1.5v6.124l-4.33-4.33a1.5 1.5 0 0 0 -2.121 0l-10.221 10.224a1.5 1.5 0 0 0 0 2.121l4.33 4.33h-6.124a1.5 1.5 0 0 0 -1.5 1.5v5.731h-37.949a9.111 9.111 0 0 1 -9.1-9.1v-91.195h151.485v91.195a9.11 9.11 0 0 1 -9.1 9.1h-37.948v-5.729a1.5 1.5 0 0 0 -1.5-1.502zm-9.116 18.705 4.141 4.141-8.1 8.1-4.141-4.141a1.5 1.5 0 0 0 -1.694-.3c-.552.257-1.064.471-1.568.654a1.5 1.5 0 0 0 -.987 1.41v5.851h-11.458v-5.851a1.5 1.5 0 0 0 -.987-1.41c-.506-.184-1.019-.4-1.568-.654a1.5 1.5 0 0 0 -1.695.3l-4.141 4.141-8.1-8.1 4.141-4.141a1.5 1.5 0 0 0 .3-1.695c-.256-.549-.47-1.062-.654-1.568a1.5 1.5 0 0 0 -1.41-.987h-5.851v-11.459h5.851a1.5 1.5 0 0 0 1.41-.987c.184-.506.4-1.019.654-1.568a1.5 1.5 0 0 0 -.3-1.695l-4.141-4.141 8.1-8.1 4.141 4.141a1.5 1.5 0 0 0 1.695.3c.549-.256 1.062-.47 1.568-.654a1.5 1.5 0 0 0 .987-1.41v-5.855h11.455v5.851a1.5 1.5 0 0 0 .987 1.41c.5.183 1.017.4 1.568.654a1.5 1.5 0 0 0 1.694-.3l4.141-4.141 8.1 8.1-4.141 4.141a1.5 1.5 0 0 0 -.3 1.694c.255.547.469 1.061.654 1.57a1.5 1.5 0 0 0 1.409.986h5.852v11.455h-5.852a1.5 1.5 0 0 0 -1.409.986c-.186.509-.4 1.023-.654 1.57a1.5 1.5 0 0 0 .302 1.698zm-84.722-8.478h37.949v5.727a1.5 1.5 0 0 0 1.5 1.5h6.124l-4.33 4.33a1.5 1.5 0 0 0 0 2.121l10.221 10.222a1.544 1.544 0 0 0 2.121 0l4.33-4.33v6.124a1.5 1.5 0 0 0 1.5 1.5h14.455a1.5 1.5 0 0 0 1.5-1.5v-6.124l4.33 4.33a1.5 1.5 0 0 0 2.121 0l10.222-10.225a1.5 1.5 0 0 0 0-2.121l-4.33-4.33h6.124a1.5 1.5 0 0 0 1.5-1.5v-5.724h37.948a12.114 12.114 0 0 0 12.1-12.1v-72.98h17.224a3.76 3.76 0 0 1 3.755 3.756v111.776a3.76 3.76 0 0 1 -3.755 3.756h-191.931a3.76 3.76 0 0 1 -3.756-3.756v-111.776a3.76 3.76 0 0 1 3.756-3.756h17.222v72.98a12.114 12.114 0 0 0 12.1 12.1zm133.284-132.346a9.112 9.112 0 0 1 9.1 9.1v16.951h-151.484v-16.949a9.112 9.112 0 0 1 9.1-9.1zm-174.771 174.798v-123.776a12.178 12.178 0 0 1 12.165-12.165h17.222v5.409h-17.222a6.764 6.764 0 0 0 -6.756 6.756v111.776a6.764 6.764 0 0 0 6.756 6.756h191.931a6.763 6.763 0 0 0 6.755-6.756v-111.776a6.763 6.763 0 0 0 -6.755-6.756h-17.224v-5.409h17.224a12.178 12.178 0 0 1 12.164 12.165v123.776a12.178 12.178 0 0 1 -12.164 12.165h-191.931a12.179 12.179 0 0 1 -12.165-12.165zm82.3 15.165h51.659v19.158h-51.659zm-10.861 22.159h73.383v6.2h-73.383z"/><path d="m69.682 32.722a6.342 6.342 0 1 0 -6.342-6.342 6.349 6.349 0 0 0 6.342 6.342zm0-9.684a3.342 3.342 0 1 1 -3.342 3.342 3.345 3.345 0 0 1 3.342-3.342z"/><path d="m88.332 32.722a6.342 6.342 0 1 0 -6.342-6.342 6.349 6.349 0 0 0 6.342 6.342zm0-9.684a3.342 3.342 0 1 1 -3.342 3.342 3.345 3.345 0 0 1 3.342-3.342z"/><path d="m106.981 32.722a6.342 6.342 0 1 0 -6.342-6.342 6.349 6.349 0 0 0 6.342 6.342zm0-9.684a3.342 3.342 0 1 1 -3.342 3.342 3.345 3.345 0 0 1 3.342-3.342z"/><path d="m126.206 31.886h61.265a5.189 5.189 0 1 0 0-10.378h-61.265a5.189 5.189 0 1 0 0 10.378zm0-7.378h61.265a2.189 2.189 0 1 1 0 4.378h-61.265a2.189 2.189 0 1 1 0-4.378z"/><path d="m128 133.492a10.7 10.7 0 1 0 10.7 10.7 10.716 10.716 0 0 0 -10.7-10.7zm0 18.408a7.7 7.7 0 1 1 7.7-7.7 7.713 7.713 0 0 1 -7.7 7.7z"/><path d="m188.667 101v-36.88a6.508 6.508 0 0 0 -6.5-6.5h-108.334a6.508 6.508 0 0 0 -6.5 6.5v36.88a6.508 6.508 0 0 0 6.5 6.5h108.334a6.508 6.508 0 0 0 6.5-6.5zm-118.334 0v-36.88a3.5 3.5 0 0 1 3.5-3.5h108.334a3.5 3.5 0 0 1 3.5 3.5v36.88a3.5 3.5 0 0 1 -3.5 3.5h-108.334a3.5 3.5 0 0 1 -3.5-3.5z"/><path d="m114.437 91.992h-9.437a1.186 1.186 0 0 0 -1.122.8l-1.3 3.813a1.186 1.186 0 0 1 -1.122.8h-5.012a1.186 1.186 0 0 1 -1.113-1.6l10.006-27.12a1.186 1.186 0 0 1 1.113-.775h6.622a1.186 1.186 0 0 1 1.113.775l10.006 27.12a1.186 1.186 0 0 1 -1.113 1.6h-5.095a1.186 1.186 0 0 1 -1.122-.8l-1.3-3.813a1.186 1.186 0 0 0 -1.124-.8zm-1.53-7.028-2.05-6.057a1.186 1.186 0 0 0 -2.245 0l-2.073 6.057a1.186 1.186 0 0 0 1.122 1.57h4.123a1.186 1.186 0 0 0 1.123-1.57z"/><path d="m134.736 88.178v8.047a1.186 1.186 0 0 1 -1.186 1.186h-4.811a1.186 1.186 0 0 1 -1.186-1.186v-27.33a1.186 1.186 0 0 1 1.186-1.186h10.452q5.293 0 8.065 2.626a9.288 9.288 0 0 1 2.773 7.079 9.763 9.763 0 0 1 -1.239 4.937 8.583 8.583 0 0 1 -3.675 3.4 12.942 12.942 0 0 1 -5.923 1.239h-3.269a1.186 1.186 0 0 0 -1.187 1.188zm7.983-10.764q0-3.908-4.327-3.908h-2.471a1.186 1.186 0 0 0 -1.186 1.186v5.358a1.186 1.186 0 0 0 1.186 1.186h2.471q4.327 0 4.328-3.822z"/><path d="m160.743 68.895v27.33a1.186 1.186 0 0 1 -1.186 1.186h-4.811a1.186 1.186 0 0 1 -1.186-1.186v-27.33a1.186 1.186 0 0 1 1.186-1.186h4.811a1.186 1.186 0 0 1 1.186 1.186z"/></g></svg>