<?xml version="1.0"?>
<svg xmlns="http://www.w3.org/2000/svg" xmlns:xlink="http://www.w3.org/1999/xlink" width="512" height="512" viewBox="0 0 128 128"><defs><linearGradient id="a" x1="104.776" y1="104.777" x2="23.223" y2="23.224" gradientUnits="userSpaceOnUse"><stop offset="0" stop-color="#46afe0"/><stop offset="1" stop-color="#8ed527"/></linearGradient></defs><path d="M52.535,56.416a13.771,13.771,0,0,1,3.446-3.58,1.75,1.75,0,1,1,2.045,2.84,10.3,10.3,0,0,0-2.575,2.676,1.75,1.75,0,0,1-2.916-1.936ZM64,50.25a1.75,1.75,0,0,0,0,3.5A10.25,10.25,0,1,1,53.75,64c0-.119,0-.237.006-.355a1.75,1.75,0,0,0-1.687-1.811,1.726,1.726,0,0,0-1.811,1.687c-.005.16-.008.319-.008.479A13.75,13.75,0,1,0,64,50.25Zm3.014,20.688a1.74,1.74,0,0,0,.88-.239A7.785,7.785,0,0,0,71.75,64a1.75,1.75,0,0,0-3.5,0,4.274,4.274,0,0,1-2.119,3.676,1.75,1.75,0,0,0,.883,3.262ZM105.9,64.007c10.167,11.6,13.616,22.346,9.42,29.618-3.015,5.226-9.542,7.938-18.583,7.938a61.023,61.023,0,0,1-11.772-1.292c-.593,1.734-1.221,3.384-1.878,4.935.133.116.273.223.4.349a7.745,7.745,0,0,1-8.587,12.571c-3.361,3.346-7.1,5.124-10.893,5.124-8.393,0-15.978-8.363-20.955-22.979a61.159,61.159,0,0,1-11.777,1.292c-9.042,0-15.568-2.711-18.583-7.938-4.2-7.272-.747-18.015,9.422-29.619-1.225-1.4-2.362-2.8-3.4-4.177a7.807,7.807,0,0,1-2.273.337,7.728,7.728,0,0,1-4.766-13.852c-1.207-4.561-.875-8.67,1.018-11.94,4.2-7.279,15.225-9.665,30.361-6.65C48.025,13.11,55.609,4.75,64,4.75s15.976,8.361,20.953,22.973c15.133-3.013,26.163-.628,30.362,6.652,1.951,3.386,2.256,7.492.953,12.206.134.117.269.231.4.357a7.748,7.748,0,0,1-5.48,13.228,7.8,7.8,0,0,1-1.954-.256C108.189,61.29,107.075,62.66,105.9,64.007Zm8.293-14.594a4.25,4.25,0,0,0-6.01,6.011h0a4.25,4.25,0,0,0,6.009-6.011ZM86.02,31.076a107.039,107.039,0,0,1,3.54,18.169A105.745,105.745,0,0,1,103.525,61.4q1.351-1.559,2.572-3.148c-.133-.117-.268-.231-.394-.358a7.742,7.742,0,0,1,7.389-12.98c.824-3.463.56-6.418-.809-8.8C108.961,30.365,99.208,28.526,86.02,31.076ZM90.38,64c0,3.371-.131,6.73-.378,10.034A98.907,98.907,0,0,0,101.162,64,98.792,98.792,0,0,0,90,53.966C90.249,57.27,90.38,60.629,90.38,64ZM86.242,51.163c-3.394-2.442-7.019-4.79-10.807-6.977C71.685,42.02,67.842,40.05,64,38.308c-3.84,1.741-7.684,3.711-11.434,5.878-3.79,2.188-7.416,4.537-10.807,6.977-.418,4.192-.638,8.5-.638,12.837s.22,8.646.638,12.837c3.394,2.442,7.019,4.79,10.807,6.977C56.315,85.98,60.158,87.95,64,89.692c3.84-1.741,7.684-3.711,11.434-5.878,3.79-2.188,7.416-4.537,10.807-6.977.418-4.192.638-8.5.638-12.837S86.66,55.354,86.242,51.163ZM82.589,31.818A100.265,100.265,0,0,0,68.31,36.459c2.987,1.443,5.96,3.011,8.876,4.7,2.939,1.7,5.783,3.492,8.5,5.347A100.179,100.179,0,0,0,82.589,31.818Zm-36.1-3.343a107.245,107.245,0,0,1,17.514,6,107.329,107.329,0,0,1,17.516-6C77.113,15.779,70.638,8.25,64,8.25S50.888,15.778,46.485,28.475ZM42.309,46.5c2.72-1.855,5.565-3.648,8.505-5.347,2.917-1.684,5.889-3.252,8.875-4.695a100.213,100.213,0,0,0-14.278-4.641A100.151,100.151,0,0,0,42.309,46.5ZM20.681,52.419a4.247,4.247,0,1,0-7.253,3.005h0a4.248,4.248,0,0,0,7.252-3.005ZM24.476,61.4A105.667,105.667,0,0,1,38.439,49.246a107.109,107.109,0,0,1,3.541-18.17c-13.188-2.553-22.941-.712-26.264,5.049-1.363,2.354-1.633,5.278-.825,8.7A7.748,7.748,0,0,1,21.914,57.9c-.054.054-.113.1-.168.153Q23.012,59.713,24.476,61.4ZM37.62,64c0-3.371.131-6.73.378-10.034A98.907,98.907,0,0,0,26.838,64,98.792,98.792,0,0,0,38,74.034C37.751,70.73,37.62,67.371,37.62,64Zm4.36,32.924a107.039,107.039,0,0,1-3.54-18.169A105.714,105.714,0,0,1,24.481,66.6c-8.8,10.152-12.084,19.521-8.765,25.273S28.791,99.472,41.98,96.924Zm3.431-.742A100.265,100.265,0,0,0,59.69,91.541C56.7,90.1,53.73,88.53,50.814,86.846c-2.939-1.7-5.783-3.492-8.505-5.347A100.179,100.179,0,0,0,45.411,96.182Zm36.836,14.852a4.22,4.22,0,0,0-1.242-3.005,4.279,4.279,0,0,0-4.064-1.109,1.75,1.75,0,1,1-.865-3.391,7.774,7.774,0,0,1,3.907.024c.533-1.275,1.046-2.621,1.536-4.027a107.259,107.259,0,0,1-17.518-6,107.329,107.329,0,0,1-17.516,6c4.4,12.7,10.877,20.225,17.515,20.225,2.759,0,5.468-1.259,8.07-3.738a7.72,7.72,0,0,1-1.779-5.742,1.75,1.75,0,1,1,3.483.343,4.247,4.247,0,1,0,8.473.421ZM85.691,81.5c-2.72,1.855-5.565,3.648-8.5,5.347-2.917,1.684-5.89,3.252-8.875,4.695a100.254,100.254,0,0,0,14.278,4.641A100.2,100.2,0,0,0,85.691,81.5Zm17.828-14.9A105.662,105.662,0,0,1,89.561,78.754a107.109,107.109,0,0,1-3.541,18.17c13.188,2.551,22.941.711,26.264-5.049S112.318,76.754,103.519,66.6Z" fill="url(#a)"/></svg>
