<svg height="512" viewBox="0 0 256 256" width="512" xmlns="http://www.w3.org/2000/svg"><rect fill="#cecece" height="151.106" rx="13.665" width="219.26" x="18.37" y="18.727"/><path d="m28.37 156.168v-123.776a13.681 13.681 0 0 1 13.665-13.665h-10a13.681 13.681 0 0 0 -13.665 13.665v123.776a13.681 13.681 0 0 0 13.665 13.665h10a13.681 13.681 0 0 1 -13.665-13.665z" fill="#afafaf"/><path d="m227.63 156.168v-123.776a13.681 13.681 0 0 0 -13.665-13.665h10a13.681 13.681 0 0 1 13.665 13.665v123.776a13.681 13.681 0 0 1 -13.665 13.665h-10a13.681 13.681 0 0 0 13.665-13.665z" fill="#e2e2e2"/><rect fill="#63bce7" height="122.288" rx="5.256" width="202.442" x="26.779" y="27.136"/><path d="m36.779 144.168v-111.776a5.271 5.271 0 0 1 5.256-5.256h-10a5.271 5.271 0 0 0 -5.256 5.256v111.776a5.271 5.271 0 0 0 5.256 5.256h10a5.271 5.271 0 0 1 -5.256-5.256z" fill="#6377e7"/><path d="m219.221 144.168v-111.776a5.271 5.271 0 0 0 -5.256-5.256h10a5.271 5.271 0 0 1 5.256 5.256v111.776a5.271 5.271 0 0 1 -5.256 5.256h-10a5.271 5.271 0 0 0 5.256-5.256z" fill="#63e2e7"/><circle cx="128" cy="141.672" fill="#9e9e9e" r="39.978"/><path d="m98.022 141.672a39.976 39.976 0 0 1 34.978-39.655 39.978 39.978 0 1 0 0 79.311 39.976 39.976 0 0 1 -34.978-39.656z" fill="#707070"/><path d="m109.249 181.65h37.5a44.65 44.65 0 0 1 44.651 44.65 0 0 0 0 1 0 0h-126.8a0 0 0 0 1 0 0 44.65 44.65 0 0 1 44.649-44.65z" fill="#f8af23"/><path d="m119.249 181.65h-10a44.649 44.649 0 0 0 -44.649 44.65h10a44.649 44.649 0 0 1 44.649-44.65z" fill="#f87023"/><path d="m46.621 34.224h47.425v37h-47.425z" fill="#f46275"/><path d="m104.288 34.224h47.425v37h-47.425z" fill="#f46275"/><path d="m161.954 34.224h47.425v37h-47.425z" fill="#f46275"/><path d="m85.984 105.463c-.164.458-.35.9-.552 1.334l4.1 4.1-8.063 8.063-4.1-4.1c-.436.2-.881.388-1.334.553v5.8h-11.4v-5.8c-.453-.164-.9-.35-1.334-.553l-4.1 4.1-8.063-8.06 4.1-4.1c-.2-.436-.388-.876-.552-1.334h-5.8v-11.4h5.8c.164-.453.35-.9.552-1.334l-4.1-4.1 8.062-8.066 4.1 4.1c.436-.2.881-.393 1.334-.557v-5.8h11.4v5.8c.453.164.9.354 1.334.557l4.1-4.1 8.063 8.063-4.1 4.1c.2.436.388.881.552 1.334h5.8v11.4z" fill="#9e9e9e"/><circle cx="70.333" cy="99.764" fill="#f8af23" r="7.259"/><path d="m201.318 105.463c-.164.458-.35.9-.552 1.334l4.1 4.1-8.063 8.063-4.1-4.1c-.436.2-.881.388-1.334.553v5.8h-11.4v-5.8c-.453-.164-.9-.35-1.334-.553l-4.1 4.1-8.063-8.063 4.1-4.1c-.2-.436-.388-.876-.552-1.334h-5.8v-11.4h5.8c.164-.453.35-.9.552-1.334l-4.1-4.1 8.063-8.063 4.1 4.1c.436-.2.881-.393 1.334-.557v-5.8h11.4v5.8c.453.164.9.354 1.334.557l4.1-4.1 8.063 8.063-4.1 4.1c.2.436.388.881.552 1.334h5.8v11.4z" fill="#9e9e9e"/><circle cx="185.667" cy="99.764" fill="#f8af23" r="7.259"/><g fill="#3f3679"><path d="m27.323 235.772h-18a1.5 1.5 0 0 0 0 3h18a1.5 1.5 0 0 0 0-3z"/><path d="m246.68 235.772h-18a1.5 1.5 0 1 0 0 3h18a1.5 1.5 0 0 0 0-3z"/><path d="m218.479 235.772h-180.958a1.5 1.5 0 1 0 0 3h180.958a1.5 1.5 0 1 0 0-3z"/><path d="m9.32 227.8h237.36a1.5 1.5 0 0 0 0-3h-53.818a46.2 46.2 0 0 0 -46.111-44.649h-3.292a41.588 41.588 0 0 0 13.494-8.817h67.013a15.182 15.182 0 0 0 15.164-15.165v-123.777a15.182 15.182 0 0 0 -15.164-15.165h-191.932a15.182 15.182 0 0 0 -15.164 15.165v123.776a15.182 15.182 0 0 0 15.164 15.165h67.013a41.588 41.588 0 0 0 13.494 8.817h-3.292a46.2 46.2 0 0 0 -46.111 44.65h-53.818a1.5 1.5 0 0 0 0 3zm10.55-71.631v-123.777a12.178 12.178 0 0 1 12.164-12.164h191.932a12.178 12.178 0 0 1 12.164 12.164v123.776a12.178 12.178 0 0 1 -12.164 12.165h-64.225a41.366 41.366 0 0 0 8.683-17.409h55.541a6.763 6.763 0 0 0 6.755-6.756v-111.776a6.763 6.763 0 0 0 -6.755-6.755h-191.931a6.763 6.763 0 0 0 -6.755 6.755v111.776a6.763 6.763 0 0 0 6.755 6.756h55.542a41.366 41.366 0 0 0 8.683 17.409h-64.225a12.178 12.178 0 0 1 -12.164-12.165zm66.652-14.5a41.61 41.61 0 0 0 .472 6.252h-54.96a3.76 3.76 0 0 1 -3.755-3.756v-111.773a3.759 3.759 0 0 1 3.755-3.755h191.932a3.759 3.759 0 0 1 3.755 3.755v111.776a3.76 3.76 0 0 1 -3.755 3.756h-54.96a41.479 41.479 0 1 0 -82.483-6.252zm3 0a38.478 38.478 0 1 1 38.478 38.481 38.521 38.521 0 0 1 -38.478-38.478zm19.727 41.478h37.5a43.2 43.2 0 0 1 43.126 41.653h-123.75a43.2 43.2 0 0 1 43.124-41.65z"/><path d="m94.046 32.724h-47.425a1.5 1.5 0 0 0 -1.5 1.5v37a1.5 1.5 0 0 0 1.5 1.5h47.425a1.5 1.5 0 0 0 1.5-1.5v-37a1.5 1.5 0 0 0 -1.5-1.5zm-1.5 37h-44.425v-34h44.425z"/><path d="m104.288 72.724h47.424a1.5 1.5 0 0 0 1.5-1.5v-37a1.5 1.5 0 0 0 -1.5-1.5h-47.424a1.5 1.5 0 0 0 -1.5 1.5v37a1.5 1.5 0 0 0 1.5 1.5zm1.5-37h44.424v34h-44.424z"/><path d="m161.954 72.724h47.425a1.5 1.5 0 0 0 1.5-1.5v-37a1.5 1.5 0 0 0 -1.5-1.5h-47.425a1.5 1.5 0 0 0 -1.5 1.5v37a1.5 1.5 0 0 0 1.5 1.5zm1.5-37h44.425v34h-44.425z"/><path d="m91.781 92.563h-4.064l2.874-2.874a1.5 1.5 0 0 0 0-2.121l-8.062-8.062a1.5 1.5 0 0 0 -2.121 0l-2.874 2.874v-4.064a1.5 1.5 0 0 0 -1.5-1.5h-11.4a1.5 1.5 0 0 0 -1.5 1.5v4.064l-2.874-2.874a1.5 1.5 0 0 0 -2.121 0l-8.062 8.062a1.5 1.5 0 0 0 0 2.121l2.874 2.874h-4.066a1.5 1.5 0 0 0 -1.5 1.5v11.4a1.5 1.5 0 0 0 1.5 1.5h4.065l-2.874 2.874a1.5 1.5 0 0 0 0 2.121l8.062 8.062a1.544 1.544 0 0 0 2.121 0l2.874-2.874v4.064a1.5 1.5 0 0 0 1.5 1.5h11.4a1.5 1.5 0 0 0 1.5-1.5v-4.064l2.874 2.874a1.544 1.544 0 0 0 2.121 0l8.062-8.062a1.5 1.5 0 0 0 0-2.121l-2.874-2.874h4.064a1.5 1.5 0 0 0 1.5-1.5v-11.4a1.5 1.5 0 0 0 -1.499-1.5zm-1.5 11.4h-4.3a1.5 1.5 0 0 0 -1.41.988c-.149.412-.32.814-.5 1.209a1.5 1.5 0 0 0 .3 1.7l3.042 3.042-5.94 5.94-3.046-3.042a1.5 1.5 0 0 0 -1.694-.3c-.4.184-.8.355-1.212.506a1.5 1.5 0 0 0 -.986 1.409v4.3h-8.4v-4.3a1.5 1.5 0 0 0 -.986-1.409c-.413-.151-.816-.322-1.212-.506a1.5 1.5 0 0 0 -1.694.3l-3.043 3.04-5.94-5.94 3.042-3.042a1.5 1.5 0 0 0 .3-1.7c-.185-.4-.355-.8-.506-1.212a1.5 1.5 0 0 0 -1.409-.985h-4.3v-8.4h4.3a1.5 1.5 0 0 0 1.409-.985c.15-.413.321-.816.506-1.212a1.5 1.5 0 0 0 -.3-1.7l-3.042-3.042 5.94-5.94 3.04 3.048a1.5 1.5 0 0 0 1.694.3c.4-.184.8-.355 1.212-.506a1.5 1.5 0 0 0 .986-1.409v-4.3h8.4v4.3a1.5 1.5 0 0 0 .986 1.409c.413.151.816.322 1.212.506a1.5 1.5 0 0 0 1.694-.3l3.042-3.042 5.94 5.94-3.042 3.042a1.5 1.5 0 0 0 -.3 1.7c.184.395.354.8.5 1.209a1.5 1.5 0 0 0 1.41.988h4.3z"/><path d="m70.333 91a8.759 8.759 0 1 0 8.76 8.759 8.769 8.769 0 0 0 -8.76-8.759zm0 14.519a5.759 5.759 0 1 1 5.76-5.759 5.765 5.765 0 0 1 -5.76 5.763z"/><path d="m207.115 92.563h-4.064l2.873-2.874a1.5 1.5 0 0 0 0-2.121l-8.062-8.062a1.5 1.5 0 0 0 -2.121 0l-2.874 2.874v-4.064a1.5 1.5 0 0 0 -1.5-1.5h-11.4a1.5 1.5 0 0 0 -1.5 1.5v4.064l-2.874-2.874a1.5 1.5 0 0 0 -2.121 0l-8.062 8.062a1.5 1.5 0 0 0 0 2.121l2.874 2.874h-4.064a1.5 1.5 0 0 0 -1.5 1.5v11.4a1.5 1.5 0 0 0 1.5 1.5h4.064l-2.874 2.874a1.5 1.5 0 0 0 0 2.121l8.062 8.062a1.544 1.544 0 0 0 2.121 0l2.874-2.874v4.064a1.5 1.5 0 0 0 1.5 1.5h11.4a1.5 1.5 0 0 0 1.5-1.5v-4.064l2.874 2.874a1.544 1.544 0 0 0 2.121 0l8.062-8.062a1.5 1.5 0 0 0 0-2.121l-2.873-2.874h4.064a1.5 1.5 0 0 0 1.5-1.5v-11.4a1.5 1.5 0 0 0 -1.5-1.5zm-1.5 11.4h-4.3a1.5 1.5 0 0 0 -1.409.985c-.151.414-.322.818-.507 1.214a1.5 1.5 0 0 0 .3 1.693l3.041 3.042-5.94 5.94-3.04-3.037a1.5 1.5 0 0 0 -1.694-.3c-.4.184-.8.355-1.212.506a1.5 1.5 0 0 0 -.986 1.409v4.3h-8.4v-4.3a1.5 1.5 0 0 0 -.986-1.409c-.413-.151-.816-.322-1.212-.506a1.5 1.5 0 0 0 -1.694.3l-3.042 3.042-5.94-5.94 3.042-3.042a1.5 1.5 0 0 0 .3-1.7c-.184-.395-.354-.8-.5-1.209a1.5 1.5 0 0 0 -1.41-.988h-4.3v-8.4h4.3a1.5 1.5 0 0 0 1.41-.988c.149-.412.32-.814.5-1.209a1.5 1.5 0 0 0 -.3-1.7l-3.042-3.042 5.94-5.94 3.042 3.042a1.5 1.5 0 0 0 1.694.3c.4-.184.8-.355 1.212-.506a1.5 1.5 0 0 0 .986-1.409v-4.3h8.4v4.3a1.5 1.5 0 0 0 .986 1.409c.413.151.816.322 1.212.506a1.5 1.5 0 0 0 1.694-.3l3.042-3.042 5.94 5.94-3.042 3.047a1.5 1.5 0 0 0 -.3 1.693c.185.4.355.8.507 1.214a1.5 1.5 0 0 0 1.409.985h4.3z"/><path d="m185.667 91a8.759 8.759 0 1 0 8.759 8.759 8.769 8.769 0 0 0 -8.759-8.759zm0 14.519a5.759 5.759 0 1 1 5.759-5.759 5.766 5.766 0 0 1 -5.759 5.763z"/><path d="m104.288 79.818h47.424a1.5 1.5 0 0 0 0-3h-47.424a1.5 1.5 0 0 0 0 3z"/><path d="m104.288 86.839h47.424a1.5 1.5 0 0 0 0-3h-47.424a1.5 1.5 0 0 0 0 3z"/><path d="m74.394 41.925a2.419 2.419 0 0 0 -3.115 1.413l-6.419 17.069a2.418 2.418 0 1 0 4.527 1.7l6.42-17.067a2.419 2.419 0 0 0 -1.413-3.115z"/><path d="m61.744 46.189a2.419 2.419 0 0 0 -3.42 0l-4.824 4.825a2.419 2.419 0 0 0 0 3.42l4.824 4.824a2.419 2.419 0 0 0 3.42-3.42l-3.114-3.114 3.114-3.114a2.419 2.419 0 0 0 0-3.421z"/><path d="m87.167 51.014-4.824-4.824a2.419 2.419 0 0 0 -3.42 3.42l3.114 3.114-3.114 3.114a2.419 2.419 0 0 0 3.42 3.42l4.824-4.824a2.419 2.419 0 0 0 0-3.42z"/><path d="m132.061 41.925a2.419 2.419 0 0 0 -3.115 1.413l-6.419 17.069a2.418 2.418 0 1 0 4.527 1.7l6.419-17.069a2.419 2.419 0 0 0 -1.412-3.113z"/><path d="m119.411 46.189a2.419 2.419 0 0 0 -3.42 0l-4.824 4.824a2.419 2.419 0 0 0 0 3.42l4.824 4.824a2.419 2.419 0 0 0 3.42-3.42l-3.111-3.113 3.114-3.114a2.419 2.419 0 0 0 -.003-3.421z"/><path d="m144.833 51.014-4.824-4.824a2.419 2.419 0 0 0 -3.42 3.42l3.114 3.114-3.114 3.114a2.419 2.419 0 0 0 3.42 3.42l4.824-4.824a2.419 2.419 0 0 0 0-3.42z"/><path d="m189.727 41.925a2.419 2.419 0 0 0 -3.115 1.413l-6.419 17.069a2.418 2.418 0 1 0 4.527 1.7l6.42-17.067a2.419 2.419 0 0 0 -1.413-3.115z"/><path d="m177.078 46.189a2.419 2.419 0 0 0 -3.42 0l-4.824 4.824a2.419 2.419 0 0 0 0 3.42l4.824 4.824a2.419 2.419 0 1 0 3.42-3.42l-3.114-3.114 3.114-3.114a2.419 2.419 0 0 0 0-3.42z"/><path d="m202.5 51.014-4.824-4.824a2.419 2.419 0 0 0 -3.42 3.42l3.114 3.114-3.114 3.114a2.419 2.419 0 0 0 3.42 3.42l4.824-4.824a2.419 2.419 0 0 0 0-3.42z"/></g></svg>